<svg width="30" height="30" viewBox="0 0 30 30" fill="none" xmlns="http://www.w3.org/2000/svg">
<path d="M28.4211 27.7674L22.7589 22.1053H4.73684C3.89932 22.1053 3.09609 21.7726 2.50387 21.1803C1.91165 20.5881 1.57895 19.7849 1.57895 18.9474V4.73684C1.57895 3.89932 1.91165 3.09609 2.50387 2.50387C3.09609 1.91165 3.89932 1.57895 4.73684 1.57895H25.2632C26.1007 1.57895 26.9039 1.91165 27.4961 2.50387C28.0883 3.09609 28.4211 3.89932 28.4211 4.73684V27.7674ZM28.4211 30H30V4.73684C30 3.48055 29.5009 2.27572 28.6126 1.38739C27.7243 0.499059 26.5194 0 25.2632 0H4.73684C3.48055 0 2.27572 0.499059 1.38739 1.38739C0.499059 2.27572 0 3.48055 0 4.73684V18.9474C0 20.2037 0.499059 21.4085 1.38739 22.2968C2.27572 23.1852 3.48055 23.6842 4.73684 23.6842H22.1053L28.4211 30Z" fill="black" fill-opacity="0.6"/>
</svg>
