<svg width="20" height="20" viewBox="0 0 20 20" fill="none" xmlns="http://www.w3.org/2000/svg">
<path fill-rule="evenodd" clip-rule="evenodd" d="M8.33334 1.66667C8.3335 1.49287 8.27931 1.32338 8.17837 1.18191C8.07743 1.04043 7.93478 0.934061 7.77039 0.877672C7.606 0.821283 7.42809 0.817702 7.26157 0.867429C7.09504 0.917156 6.94823 1.0177 6.84168 1.155L1.00834 8.655C0.894547 8.80128 0.832764 8.98133 0.832764 9.16667C0.832764 9.352 0.894547 9.53205 1.00834 9.67833L6.84168 17.1783C6.94823 17.3156 7.09504 17.4162 7.26157 17.4659C7.42809 17.5156 7.606 17.512 7.77039 17.4557C7.93478 17.3993 8.07743 17.2929 8.17837 17.1514C8.27931 17.01 8.3335 16.8405 8.33334 16.6667V13.3417C12.8158 13.435 14.9692 14.2858 16.0508 15.2108C17.0792 16.09 17.2675 17.1242 17.4633 18.2075L17.5142 18.4867C17.5516 18.6864 17.6607 18.8656 17.821 18.9906C17.9812 19.1155 18.1817 19.1776 18.3845 19.1651C18.5873 19.1526 18.7786 19.0664 18.9224 18.9227C19.0661 18.7791 19.1524 18.5878 19.165 18.385C19.3075 16.095 19.0933 12.7767 17.4758 10.0008C15.9058 7.30667 13.0783 5.235 8.33334 5.01833V1.66667Z" fill="#7C7C7C"/>
</svg>
