<svg width="204" height="90" viewBox="0 0 204 90" fill="none" xmlns="http://www.w3.org/2000/svg">
<rect width="204" height="90" fill="white"/>
<rect width="204" height="90" fill="white"/>
<path d="M69.1304 44.7124C69.1304 50.3976 71.654 53.2402 76.7012 53.2402C81.623 53.2402 84.084 50.3976 84.084 44.7124C84.084 39.1183 81.623 36.3213 76.7012 36.3213C71.654 36.3213 69.1304 39.1183 69.1304 44.7124ZM64.4307 44.8149C64.4307 36.5321 68.5208 32.3906 76.7012 32.3906C84.7562 32.3906 88.7837 36.5321 88.7837 44.8149C88.7837 53.0522 84.7562 57.1709 76.7012 57.1709C68.8854 57.1709 64.7952 53.0522 64.4307 44.8149ZM104.028 42.6445H97.1748V57H92.646V38.1841C92.646 33.8433 95.05 31.6729 99.8579 31.6729C100.872 31.6729 101.835 31.8438 102.746 32.1855V35.7744C102.017 35.4326 101.105 35.2617 100.012 35.2617C98.1204 35.2617 97.1748 36.1903 97.1748 38.0474V39.0557H104.028C104.028 34.1338 106.717 31.6729 112.094 31.6729C113.564 31.6729 114.897 31.9007 116.093 32.3564V35.9453C114.965 35.4896 113.741 35.2617 112.419 35.2617C109.844 35.2617 108.557 36.5264 108.557 39.0557H113.94V42.6445H108.557V57H104.028V42.6445ZM116.708 55.9746V51.873C119.158 52.7845 121.927 53.2402 125.014 53.2402C128.763 53.2402 130.637 51.987 130.637 49.4805C130.637 47.6576 129.486 46.7461 127.185 46.7461H123.356C118.355 46.7461 115.854 44.4674 115.854 39.9102C115.854 34.8971 119.414 32.3906 126.535 32.3906C129.27 32.3906 131.861 32.7894 134.311 33.5869V37.6885C131.861 36.777 129.27 36.3213 126.535 36.3213C122.434 36.3213 120.383 37.5176 120.383 39.9102C120.383 41.7331 121.374 42.6445 123.356 42.6445H127.185C132.505 42.6445 135.166 44.9232 135.166 49.4805C135.166 54.6074 131.782 57.1709 125.014 57.1709C121.927 57.1709 119.158 56.7721 116.708 55.9746ZM138.327 36.1504H141.677L142.36 39.0557H146.872V42.6445H142.856V50.8989C142.856 52.5737 143.579 53.4111 145.026 53.4111H146.872V57H142.839C139.831 57 138.327 55.3879 138.327 52.1636V36.1504ZM153.64 47.9595C153.64 51.7078 155.092 53.582 157.998 53.582C160.903 53.582 162.355 51.7078 162.355 47.9595C162.355 44.3022 160.903 42.4736 157.998 42.4736C155.092 42.4736 153.64 44.3022 153.64 47.9595ZM149.111 48.0278C149.111 42.0122 152.073 39.0044 157.998 39.0044C163.922 39.0044 166.884 42.0122 166.884 48.0278C166.884 54.0321 163.922 57.0342 157.998 57.0342C152.096 57.0342 149.134 54.0321 149.111 48.0278ZM170.302 57V39.0557H173.806L174.37 41.3457C175.942 39.819 177.605 39.0557 179.36 39.0557V42.7129C177.674 42.7129 176.164 43.4136 174.831 44.8149V57H170.302ZM179.787 39.0557H184.589L189.118 51.9756L193.544 39.0557H198.261L190.81 57.5298C189.488 60.7882 187.375 63.1068 184.47 64.4854L182.282 61.3921C184.287 60.5148 185.746 59.085 186.657 57.1025L179.787 39.0557Z" fill="#339AF0"/>
<path d="M13.9026 36.8197C10.3695 41.0753 8.38322 46.4073 8.26934 51.9424C8.15546 57.4772 9.92069 62.8868 13.2758 67.2847C16.6309 71.6825 21.377 74.8082 26.7364 76.1492C32.0959 77.4902 37.7509 76.9673 42.7749 74.6658C47.799 72.3645 51.8941 68.4213 54.3896 63.4824C56.8851 58.5435 57.6327 52.9015 56.5102 47.4808C55.3873 42.0604 52.4611 37.1826 48.2104 33.6469C43.9601 30.1112 38.6374 28.1271 33.1143 28.0197L32.9417 36.937C36.4483 37.0052 39.828 38.265 42.5266 40.5099C45.2256 42.7549 47.0834 45.8519 47.7963 49.2934C48.509 52.7352 48.0344 56.3173 46.4499 59.4534C44.8656 62.5892 42.2654 65.0927 39.0756 66.5538C35.8855 68.0152 32.295 68.3471 28.8922 67.4956C25.4893 66.6444 22.476 64.6598 20.3457 61.8673C18.2154 59.075 17.0946 55.6404 17.167 52.1262C17.2393 48.6118 18.5004 45.2264 20.7437 42.5244L13.9026 36.8197Z" fill="#2998F4"/>
<path d="M35.1633 12.8571H28.4385V49.9212H35.1633V12.8571Z" fill="#2998F4"/>
<path d="M28.4385 17.9113V12.8571H45.2505V17.9113H28.4385Z" fill="#2998F4"/>
<path d="M28.4385 28.0197V21.2808H45.2505V28.0197H28.4385Z" fill="#2998F4"/>
</svg>
