<svg width="42" height="40" viewBox="0 0 42 40" fill="none" xmlns="http://www.w3.org/2000/svg">
<g opacity="0.4">
<path d="M38.0669 6.17282C37.1379 5.24379 36.0349 4.50694 34.8209 4.00438C33.607 3.50182 32.3059 3.2434 30.9921 3.2439C29.6783 3.24439 28.3774 3.50378 27.1638 4.00726C25.9503 4.51073 24.8478 5.2484 23.9195 6.17813L22.7077 7.40469L21.506 6.18079L21.4982 6.17297C20.5696 5.24438 19.4672 4.50778 18.2539 4.00523C17.0407 3.50268 15.7403 3.24402 14.4271 3.24402C13.1138 3.24402 11.8135 3.50268 10.6002 4.00523C9.38695 4.50778 8.28456 5.24438 7.35597 6.17297L6.81613 6.71282C4.94077 8.58818 3.88721 11.1317 3.88721 13.7839C3.88721 16.436 4.94077 18.9796 6.81613 20.8549L21.064 35.1027L22.673 36.7884L22.7114 36.75L22.753 36.7916L24.2605 35.2011L38.6068 20.8547C40.4793 18.9778 41.5309 16.4349 41.5309 13.7836C41.5309 11.1324 40.4793 8.58944 38.6068 6.71258L38.0669 6.17282ZM36.8386 19.087L22.7114 33.2145L8.58378 19.087C7.17727 17.6804 6.3871 15.7728 6.3871 13.7837C6.3871 11.7946 7.17727 9.88692 8.58378 8.4804L9.1237 7.94055C10.5295 6.53473 12.436 5.74462 14.4242 5.74387C16.4123 5.74312 18.3194 6.5318 19.7263 7.93657L22.7023 10.9668L25.6925 7.94055C26.3889 7.24411 27.2157 6.69166 28.1256 6.31474C29.0356 5.93783 30.0109 5.74383 30.9958 5.74383C31.9807 5.74383 32.956 5.93783 33.8659 6.31474C34.7759 6.69166 35.6027 7.24411 36.2991 7.94055L36.8389 8.48032C38.2433 9.888 39.032 11.7953 39.032 13.7837C39.0319 15.7721 38.2431 17.6794 36.8386 19.087Z" fill="black"/>
</g>
</svg>
