<svg width="49" height="65" viewBox="0 0 49 65" fill="none" xmlns="http://www.w3.org/2000/svg">
<path d="M5.63847 23.9626C2.1053 28.2182 0.119064 33.5502 0.00518422 39.0853C-0.108696 44.6201 1.65653 50.0297 5.01165 54.4276C8.36678 58.8254 13.1129 61.9511 18.4723 63.2921C23.8317 64.6331 29.4867 64.1102 34.5107 61.8087C39.5349 59.5074 43.63 55.5642 46.1255 50.6253C48.621 45.6864 49.3686 40.0444 48.246 34.6237C47.1231 29.2033 44.197 24.3255 39.9463 20.7898C35.6959 17.2541 30.3732 15.27 24.8502 15.1626L24.6775 24.0799C28.1842 24.1481 31.5638 25.4079 34.2625 27.6528C36.9614 29.8978 38.8192 32.9947 39.5322 36.4363C40.2448 39.8781 39.7702 43.4602 38.1857 46.5963C36.6015 49.7321 34.0012 52.2356 30.8114 53.6967C27.6214 55.1581 24.0309 55.49 20.628 54.6385C17.2252 53.7873 14.2118 51.8027 12.0815 49.0102C9.95127 46.2179 8.83049 42.7833 8.9028 39.2691C8.97509 35.7547 10.2362 32.3693 12.4795 29.6673L5.63847 23.9626Z" fill="#2998F4"/>
<path d="M26.8992 0H20.1744V37.064H26.8992V0Z" fill="#2998F4"/>
<path d="M20.1744 5.05419V0H36.9863V5.05419H20.1744Z" fill="#2998F4"/>
<path d="M20.1744 15.1626V8.42365H36.9863V15.1626H20.1744Z" fill="#2998F4"/>
</svg>